<?xml version="1.0" standalone="no"?>
<!DOCTYPE svg PUBLIC "-//W3C//DTD SVG 20010904//EN"
 "http://www.w3.org/TR/2001/REC-SVG-20010904/DTD/svg10.dtd">
<svg version="1.0" xmlns="http://www.w3.org/2000/svg"
 width="1200.000000pt" height="1200.000000pt" viewBox="0 0 1200.000000 1200.000000"
 preserveAspectRatio="xMidYMid meet">

<g transform="translate(0.000000,1200.000000) scale(0.100000,-0.100000)"
fill="#000000" stroke="none">
<path d="M3830 7525 l0 -1335 248 2 247 3 5 540 5 540 498 3 497 2 0 195 0
195 -497 2 -498 3 0 395 0 395 588 3 587 2 0 195 0 195 -840 0 -840 0 0 -1335z"/>
<path d="M5920 7525 l0 -1335 250 0 250 0 2 583 3 582 620 0 620 0 5 -580 5
-580 248 -3 247 -2 0 1335 0 1335 -247 -2 -248 -3 -3 -572 -2 -573 -625 0
-625 0 0 575 0 575 -250 0 -250 0 0 -1335z"/>
<path d="M3580 4865 l0 -575 590 0 590 0 0 575 0 575 -590 0 -590 0 0 -575z
m790 235 l0 -40 -125 0 -125 0 0 -90 0 -90 105 0 105 0 0 -40 0 -40 -105 0
-105 0 0 -115 0 -115 -60 0 -60 0 0 285 0 285 185 0 185 0 0 -40z"/>
<path d="M4800 4865 l0 -575 590 0 590 0 0 575 0 575 -590 0 -590 0 0 -575z
m650 -10 l0 -285 -60 0 -60 0 0 285 0 285 60 0 60 0 0 -285z"/>
<path d="M6020 4865 l0 -575 590 0 590 0 0 575 0 575 -590 0 -590 0 0 -575z
m582 82 l148 -189 0 191 0 191 50 0 50 0 0 -285 0 -285 -40 0 -40 0 -148 186
-147 186 -3 -186 -2 -186 -55 0 -55 0 0 286 0 285 47 -3 48 -3 147 -188z"/>
<path d="M7240 4865 l0 -575 590 0 590 0 0 575 0 575 -590 0 -590 0 0 -575z
m720 240 c62 -34 114 -97 131 -158 19 -70 7 -187 -24 -240 -63 -108 -136 -137
-339 -137 l-138 0 0 286 0 286 158 -4 c153 -3 158 -4 212 -33z"/>
<path d="M7700 4855 l0 -205 73 0 c125 1 185 43 208 147 10 42 10 68 1 109
-22 109 -83 153 -209 154 l-73 0 0 -205z"/>
<path d="M1750 3670 l0 -580 590 0 590 0 0 580 0 580 -590 0 -590 0 0 -580z
m460 155 l0 -125 130 0 130 0 0 125 0 125 55 0 55 0 0 -285 0 -285 -55 0 -55
0 0 125 0 125 -130 0 -130 0 0 -125 0 -125 -60 0 -60 0 0 285 0 285 60 0 60 0
0 -125z"/>
<path d="M2970 3670 l0 -580 590 0 590 0 0 580 0 580 -590 0 -590 0 0 -580z
m754 8 c60 -150 110 -279 113 -286 4 -10 -8 -12 -53 -10 l-59 3 -25 67 -25 68
-115 0 -116 0 -24 -67 -25 -68 -59 -3 c-53 -3 -58 -1 -52 15 4 10 54 138 113
286 l105 267 58 0 57 0 107 -272z"/>
<path d="M3543 3788 c-6 -18 -24 -70 -41 -115 l-31 -83 88 0 88 0 -41 115
c-23 63 -44 115 -47 115 -3 0 -10 -15 -16 -32z"/>
<path d="M4190 3670 l0 -580 590 0 590 0 0 580 0 580 -590 0 -590 0 0 -580z
m741 275 c24 -8 57 -25 72 -38 l28 -22 -29 -34 -29 -35 -53 27 c-58 29 -85 32
-142 17 -117 -33 -157 -221 -72 -337 47 -63 166 -80 227 -32 33 25 49 24 78
-7 l24 -26 -38 -33 c-49 -42 -110 -59 -195 -53 -80 6 -135 31 -184 86 -67 74
-90 212 -53 323 22 66 93 140 156 162 57 20 154 21 210 2z"/>
<path d="M5410 3670 l0 -580 590 0 590 0 0 580 0 580 -590 0 -590 0 0 -580z
m490 160 l0 -120 24 0 c19 0 45 26 118 118 l93 117 63 3 c34 2 62 0 62 -3 0
-4 -48 -65 -106 -136 -90 -110 -104 -132 -91 -142 8 -7 56 -68 107 -137 51
-69 97 -131 103 -137 7 -10 -5 -13 -55 -13 l-65 0 -94 123 c-83 106 -99 122
-127 125 l-32 3 0 -125 0 -126 -55 0 -55 0 0 285 0 285 55 0 55 0 0 -120z"/>
<path d="M6630 3670 l0 -580 590 0 590 0 0 580 0 580 -590 0 -590 0 0 -580z
m790 240 l0 -40 -125 0 -125 0 0 -80 0 -80 100 0 100 0 0 -40 0 -40 -100 0
-100 0 0 -85 0 -85 125 0 125 0 0 -40 0 -40 -185 0 -185 0 0 285 0 285 185 0
185 0 0 -40z"/>
<path d="M7850 3670 l0 -580 590 0 590 0 0 580 0 580 -590 0 -590 0 0 -580z
m721 248 c100 -59 99 -200 -3 -266 l-35 -24 84 -124 84 -124 -66 0 -65 0 -59
93 c-87 135 -88 137 -121 137 l-30 0 0 -115 0 -115 -60 0 -60 0 0 286 0 286
143 -4 c133 -3 145 -5 188 -30z"/>
<path d="M8360 3774 l0 -96 60 4 c77 5 110 33 110 90 0 22 -4 48 -10 58 -12
23 -61 40 -116 40 l-44 0 0 -96z"/>
<path d="M9070 3670 l0 -580 590 0 590 0 0 580 0 580 -590 0 -590 0 0 -580z
m693 276 c21 -8 47 -22 57 -31 18 -16 18 -19 3 -51 -19 -40 -26 -41 -84 -14
-56 25 -90 25 -123 -1 -31 -24 -35 -68 -8 -92 10 -9 44 -26 76 -37 126 -43
166 -84 166 -169 0 -78 -51 -147 -127 -172 -55 -18 -154 -6 -207 25 -57 33
-61 41 -41 72 24 38 41 39 101 9 90 -46 164 -20 164 56 0 46 -15 58 -114 90
-113 37 -159 100 -142 194 8 42 59 103 101 121 39 17 130 17 178 0z"/>
</g>
</svg>
